HIERARCHY
ROOT Hips
{
	OFFSET	0.00	0.00	0.00
	CHANNELS 6 Xposition Yposition Zposition Zrotation Xrotation Yrotation
	JOINT LeftUpLeg
	{
		OFFSET	 0.126116	-0.014019	-0.065224
		CHANNELS 3 Zrotation Xrotation Yrotation
		JOINT LeftLeg
		{
			OFFSET	 0.000000	 0.000000	 0.569914
			CHANNELS 3 Zrotation Xrotation Yrotation
			JOINT LeftFoot
			{
				OFFSET	 0.000000	 0.000000	 0.544423
				CHANNELS 3 Zrotation Xrotation Yrotation
				JOINT LeftToeBase
				{
					OFFSET	 0.000000	 0.000000	 0.207117
					CHANNELS 3 Zrotation Xrotation Yrotation
					End Site
					{
						OFFSET	 0.000000	 0.000000	 0.207117
					}
				}
			}
		}
	}
	JOINT RightUpLeg
	{
		OFFSET	-0.124023	-0.008373	-0.065224
		CHANNELS 3 Zrotation Xrotation Yrotation
		JOINT RightLeg
		{
			OFFSET	 0.000000	 0.000000	 0.570047
			CHANNELS 3 Zrotation Xrotation Yrotation
			JOINT RightFoot
			{
				OFFSET	 0.000000	 0.000000	 0.544354
				CHANNELS 3 Zrotation Xrotation Yrotation
				JOINT RightToeBase
				{
					OFFSET	 0.000000	 0.000000	 0.207540
					CHANNELS 3 Zrotation Xrotation Yrotation
					End Site
					{
						OFFSET	 0.000000	 0.000000	 0.207540
					}
				}
			}
		}
	}
	JOINT Spine
	{
		OFFSET	 0.000184	-0.007763	 0.117403
		CHANNELS 3 Zrotation Xrotation Yrotation
		JOINT Spine1
		{
			OFFSET	 0.000000	 0.000000	 0.137269
			CHANNELS 3 Zrotation Xrotation Yrotation
			JOINT Spine2
			{
				OFFSET	 0.000000	 0.000000	 0.156879
				CHANNELS 3 Zrotation Xrotation Yrotation
				JOINT LeftShoulder
				{
					OFFSET	 0.080501	-0.002496	 0.160144
					CHANNELS 3 Zrotation Xrotation Yrotation
					JOINT LeftArm
					{
						OFFSET	 0.000000	 0.000000	 0.164363
						CHANNELS 3 Zrotation Xrotation Yrotation
						JOINT LeftForeArm
						{
							OFFSET	 0.000000	 0.000000	 0.364576
							CHANNELS 3 Zrotation Xrotation Yrotation
							JOINT LeftHand
							{
								OFFSET	 0.000000	 0.000000	 0.360812
								CHANNELS 3 Zrotation Xrotation Yrotation
								JOINT LeftHandIndex1
								{
									OFFSET	 0.000000	 0.000000	 0.086006
									CHANNELS 3 Zrotation Xrotation Yrotation
									JOINT LeftHandIndex2
									{
										OFFSET	 0.000000	 0.000000	 0.047237
										CHANNELS 3 Zrotation Xrotation Yrotation
										JOINT LeftHandIndex3
										{
											OFFSET	-0.004284	-0.000551	 0.038165
											CHANNELS 3 Zrotation Xrotation Yrotation
											End Site
											{
												OFFSET	-0.004284	-0.000551	 0.038165
											}
										}
									}
								}
							}
						}
					}
				}
				JOINT Neck
				{
					OFFSET	 0.000000	 0.000000	 0.176489
					CHANNELS 3 Zrotation Xrotation Yrotation
					JOINT Head
					{
						OFFSET	 0.000000	-0.001747	 0.077940
						CHANNELS 3 Zrotation Xrotation Yrotation
						End Site
						{
							OFFSET	 0.000000	-0.001747	 0.077940
						}
					}
				}
				JOINT RightShoulder
				{
					OFFSET	-0.080363	 0.000306	 0.159706
					CHANNELS 3 Zrotation Xrotation Yrotation
					JOINT RightArm
					{
						OFFSET	 0.000000	 0.000000	 0.164196
						CHANNELS 3 Zrotation Xrotation Yrotation
						JOINT RightForeArm
						{
							OFFSET	 0.000000	 0.000000	 0.365611
							CHANNELS 3 Zrotation Xrotation Yrotation
							JOINT RightHand
							{
								OFFSET	 0.000000	 0.000000	 0.360648
								CHANNELS 3 Zrotation Xrotation Yrotation
								JOINT RightHandIndex1
								{
									OFFSET	 0.000000	 0.000000	 0.069977
									CHANNELS 3 Zrotation Xrotation Yrotation
									JOINT RightHandIndex2
									{
										OFFSET	 0.000000	 0.000000	 0.052305
										CHANNELS 3 Zrotation Xrotation Yrotation
										JOINT RightHandIndex3
										{
											OFFSET	 0.009002	-0.000782	 0.042196
											CHANNELS 3 Zrotation Xrotation Yrotation
											End Site
											{
												OFFSET	 0.009002	-0.000782	 0.042196
											}
										}
									}
								}
							}
						}
					}
				}
			}
		}
	}
}
MOTION
Frames:    8
Frame Time: 0.03333334
-0.407988	 0.197408	 1.257430	-174.738100	 8.299551	 14.184030	 39.047920	-13.182820	 168.132400	-8.613938	-42.910490	-6.275862	 140.612700	 82.334180	-151.830400	-2.385833	 28.452760	 0.000004	-31.535370	-34.670410	 154.668900	 5.692948	-50.443600	 3.217589	-0.998677	 72.410430	 19.888490	 2.384659	 28.388700	-0.000001	 78.776520	-18.693120	 3.389035	 43.618680	 19.177920	 18.191490	-6.213989	-1.115443	-16.499360	-91.776200	 78.527380	-180.000000	-11.515880	 6.349274	-37.355720	-2.066756	 0.420342	-51.437210	-6.228878	-22.776530	-4.861708	-4.130319	 21.525730	 0.991547	-5.167930	 0.731704	 3.519349	-1.378229	 35.397820	-2.634230	-18.188880	 7.331759	 7.627776	-23.020650	-21.974080	-15.462200	 89.782140	 78.301420	 179.993500	 66.259510	-3.334286	-9.018735	-13.169700	-6.296954	 46.322640	-28.180320	-4.222545	-76.988410	 5.716227	 19.173190	-3.685159	 5.027444	 0.246877	-9.377972	-2.350882	 35.473990	 5.254307
-0.410593	 0.202445	 1.258446	-174.334400	 8.207988	 13.745220	 39.512110	-12.108150	 168.234600	-8.514988	-41.888590	-6.088373	 139.749800	 82.706370	-150.955300	-2.385833	 28.452760	 0.000004	-31.177660	-34.372480	 155.597600	 5.952928	-50.373580	 3.415060	-0.795569	 72.760330	 19.110720	 2.384659	 28.388700	-0.000001	 77.579410	-17.888870	 3.393207	 42.609450	 18.264160	 18.895300	-5.864232	-0.796636	-16.258940	-91.776180	 78.527350	-180.000000	-11.830790	 5.774270	-35.296440	-1.788455	 0.036167	-51.925720	-5.742326	-23.435470	-4.793515	-4.130319	 21.525730	 0.991547	-5.167930	 0.731704	 3.519349	-1.378229	 35.397820	-2.634230	-17.826480	 7.719199	 7.573980	-22.925550	-22.515700	-15.532050	 89.782170	 78.299520	 179.993700	 65.785690	-6.419831	-5.495066	-13.516550	-5.183008	 38.912820	-30.623780	-4.771890	-71.399740	 5.716227	 19.173190	-3.685159	 5.027444	 0.246877	-9.377972	-2.350882	 35.473990	 5.254307
-0.412423	 0.206757	 1.259440	-174.036900	 8.140174	 13.079120	 39.842500	-10.900940	 168.579400	-8.555766	-40.876920	-5.995526	 139.679500	 82.754760	-150.777600	-2.385833	 28.452760	 0.000004	-30.481310	-34.391770	 156.719100	 5.992611	-50.395580	 3.446782	 0.122894	 72.913180	 17.805690	 2.384659	 28.388700	-0.000001	 76.696370	-17.083260	 3.740479	 41.752590	 17.591380	 19.380580	-5.601340	-0.571981	-16.013130	-91.776230	 78.527350	-180.000000	-12.220320	 5.254574	-33.415100	-1.561665	-0.295940	-52.700450	-5.366110	-24.136360	-4.750283	-4.130319	 21.525730	 0.991547	-5.167930	 0.731704	 3.519349	-1.378229	 35.397820	-2.634230	-17.633650	 7.775722	 7.879120	-22.786220	-22.472680	-16.057000	 89.782170	 78.298230	 179.993700	 64.364490	-8.587023	-1.161146	-14.045650	-3.741743	 28.646150	-31.580350	-7.650303	-65.611670	 5.716227	 19.173190	-3.685159	 5.027444	 0.246877	-9.377972	-2.350882	 35.473990	 5.254307
-0.414078	 0.211161	 1.260548	-173.724100	 8.041374	 12.182030	 40.163340	-9.420229	 169.102900	-8.662787	-39.652680	-5.916537	 139.438300	 82.689600	-150.365800	-2.385833	 28.452760	 0.000004	-29.500520	-34.587610	 158.131900	 5.937976	-50.459670	 3.407727	 1.528747	 72.921850	 16.051560	 2.384659	 28.388700	-0.000001	 75.802150	-16.147420	 4.347071	 40.841280	 16.872250	 19.855380	-5.325806	-0.338190	-15.733910	-91.776180	 78.527360	 180.000000	-12.732300	 4.775291	-31.457460	-1.330643	-0.661009	-53.652830	-4.976355	-24.986290	-4.707809	-4.130319	 21.525730	 0.991547	-5.167930	 0.731704	 3.519349	-1.378229	 35.397820	-2.634230	-17.482050	 7.693454	 8.408732	-22.599200	-22.160780	-16.893660	 89.782160	 78.297550	 179.993800	 62.056610	-9.975786	 7.417996	-14.576750	-0.907116	 9.110216	-31.352690	-14.391770	-56.630270	 5.716227	 19.173190	-3.685159	 5.027444	 0.246877	-9.377972	-2.350882	 35.473990	 5.254307
-0.415502	 0.214555	 1.261355	-173.336800	 7.858823	 11.686390	 40.435650	-8.351337	 169.224700	-8.743850	-38.618060	-5.838976	 139.489400	 82.692930	-150.305100	-2.385833	 28.452760	 0.000004	-28.823360	-34.547480	 159.077900	 5.928732	-50.442970	 3.399766	 2.544735	 73.132050	 14.616150	 2.384659	 28.388700	-0.000001	 74.793080	-15.477540	 4.553615	 40.133560	 16.091940	 20.358290	-5.032371	-0.033313	-15.579740	-91.776180	 78.527360	 180.000000	-13.255110	 4.755619	-29.985940	-1.200266	-0.898652	-54.299960	-4.677161	-25.881240	-4.728225	-4.130319	 21.525730	 0.991547	-5.167930	 0.731704	 3.519349	-1.378229	 35.397820	-2.634230	-17.247010	 7.675115	 8.422477	-22.360760	-22.258830	-16.646010	 89.782100	 78.295280	 179.993800	 60.343270	-11.201970	 9.880275	-14.727030	-0.005626	 2.581141	-31.808760	-17.034380	-53.065750	 5.716227	 19.173190	-3.685159	 5.027444	 0.246877	-9.377972	-2.350882	 35.473990	 5.254307
-0.416934	 0.217845	 1.262123	-172.867400	 7.589179	 11.291870	 40.725700	-7.279004	 169.184100	-8.818192	-37.476470	-5.739172	 139.389400	 82.748100	-150.102400	-2.385833	 28.452760	 0.000004	-28.188350	-34.429680	 159.954300	 5.940117	-50.434140	 3.408138	 3.594832	 73.435260	 13.082050	 2.384659	 28.388700	-0.000001	 73.619670	-14.829150	 4.644896	 39.443610	 15.153820	 20.924640	-4.691046	 0.357512	-15.457200	-91.776160	 78.527360	 180.000000	-13.860340	 4.942547	-28.514030	-1.102485	-1.105967	-55.045410	-4.380695	-26.897050	-4.776649	-4.130319	 21.525730	 0.991547	-5.167930	 0.731704	 3.519349	-1.378229	 35.397820	-2.634230	-16.950170	 7.677502	 8.234784	-22.068750	-22.521450	-15.936930	 89.782140	 78.291980	 179.994100	 58.537740	-12.439010	 9.231986	-14.967790	-0.029318	 2.214946	-32.907840	-17.992390	-52.106730	 5.716227	 19.173190	-3.685159	 5.027444	 0.246877	-9.377972	-2.350882	 35.473990	 5.254307
-0.418143	 0.220592	 1.262833	-172.411700	 7.311697	 11.038650	 41.043670	-6.408991	 169.021900	-8.900632	-36.450470	-5.654906	 137.352900	 82.834830	-148.002500	-2.385833	 28.452760	 0.000004	-27.531770	-34.315070	 160.659600	 5.856798	-50.427510	 3.343432	 5.027407	 73.691230	 11.217320	 2.384659	 28.388700	-0.000001	 72.481270	-14.295450	 4.588605	 38.873790	 14.248600	 21.494070	-4.351920	 0.822711	-15.395270	-91.776250	 78.527420	-179.999900	-14.486530	 5.250513	-27.286190	-1.048932	-1.250203	-55.698690	-4.117104	-27.908110	-4.852705	-4.130319	 21.525730	 0.991547	-5.167930	 0.731704	 3.519349	-1.378229	 35.397820	-2.634230	-16.677510	 7.676303	 8.206134	-21.842100	-22.631510	-15.664860	 89.782160	 78.290500	 179.994200	 57.092360	-13.264800	 8.694941	-15.271810	-0.047992	 1.887817	-33.919650	-18.892790	-51.497260	 5.716227	 19.173190	-3.685159	 5.027444	 0.246877	-9.377972	-2.350882	 35.473990	 5.254307
-0.419149	 0.222973	 1.263508	-171.926100	 7.024625	 10.854720	 41.368560	-5.674702	 168.780900	-9.007269	-35.526040	-5.594548	 134.579300	 82.898060	-145.178400	-2.385833	 28.452760	 0.000004	-26.846770	-34.174420	 161.282200	 5.725053	-50.384240	 3.239631	 6.708101	 73.915300	 9.116288	 2.384659	 28.388700	-0.000001	 71.304700	-13.781480	 4.421567	 38.365580	 13.361030	 22.067920	-4.001000	 1.314453	-15.331780	-91.776200	 78.527360	-180.000000	-15.154380	 5.636871	-26.266420	-1.012290	-1.363238	-56.182890	-3.851900	-28.976770	-4.947808	-4.130319	 21.525730	 0.991547	-5.167930	 0.731704	 3.519349	-1.378229	 35.397820	-2.634230	-16.395930	 7.674479	 8.241460	-21.628050	-22.687800	-15.555610	 89.782100	 78.290650	 179.994100	 55.650410	-13.866510	 8.185840	-15.610520	-0.063481	 1.568855	-34.993420	-19.941110	-51.188840	 5.716227	 19.173190	-3.685159	 5.027444	 0.246877	-9.377972	-2.350882	 35.473990	 5.254307
